<svg viewBox="0 0 96 96" xmlns="http://www.w3.org/2000/svg">
<circle cx="48" cy="48" r="48" fill="#3FB8AF"/>
<path d="M48 14 C66 14 78 29 78 48 L78 84 L70 75 L62 85 L55 76 L48 87 L41 76 L34 85 L26 75 L18 84 L18 48 C18 29 30 14 48 14 Z" fill="#FCF9F4"/>
<ellipse cx="37" cy="46" rx="4.5" ry="6.5" fill="#1B1430"/>
<circle cx="35.5" cy="43.5" r="1.5" fill="#fff"/>
<ellipse cx="59" cy="46" rx="4.5" ry="6.5" fill="#1B1430"/>
<circle cx="57.5" cy="43.5" r="1.5" fill="#fff"/>
<ellipse cx="48" cy="62" rx="5" ry="6.5" fill="#1B1430"/>
<circle cx="28" cy="58" r="4" fill="#F2A7B8"/>
<circle cx="68" cy="58" r="4" fill="#F2A7B8"/>
</svg>
