<svg viewBox="0 0 96 96" xmlns="http://www.w3.org/2000/svg">
<circle cx="48" cy="48" r="48" fill="#C13BD6"/>
<circle cx="25" cy="27" r="10" fill="#F0762B"/>
<circle cx="71" cy="27" r="10" fill="#F0762B"/>
<circle cx="25" cy="27" r="5" fill="#1B1430"/>
<circle cx="71" cy="27" r="5" fill="#1B1430"/>
<ellipse cx="48" cy="54" rx="31" ry="28" fill="#F0762B"/>
<path d="M45 28 L51 28 L48 39 Z" fill="#1B1430"/>
<path d="M35 31 L41 34 L33 42 Z" fill="#1B1430"/>
<path d="M61 31 L55 34 L63 42 Z" fill="#1B1430"/>
<path d="M19 50 L32 53 L20 60 Z" fill="#1B1430"/>
<path d="M77 50 L64 53 L76 60 Z" fill="#1B1430"/>
<ellipse cx="48" cy="70" rx="15" ry="11" fill="#FCF4E8"/>
<circle cx="36" cy="51" r="4.2" fill="#1B1430"/>
<circle cx="34.6" cy="49.6" r="1.4" fill="#fff"/>
<circle cx="60" cy="51" r="4.2" fill="#1B1430"/>
<circle cx="58.6" cy="49.6" r="1.4" fill="#fff"/>
<path d="M43 64 L53 64 L48 70 Z" fill="#1B1430"/>
</svg>
